# xmcd
#
# Track frame offsets: 
#        150
#        20979
#        40370
#        56857
#        75160
#        91221
#        104562
#        121935
#        140742
#        160141
#        172680
#        185379
#        200004
#        214149
#        227475
#        239064
#        253395
#
# Disc length: 3627 seconds
#
# Revision: 0
# Processed by: cddbd v1.5.2PL0 Copyright (c) Steve Scherf et al.
# Submitted via: ExactAudioCopyFreeDBPlugin 1.0
#
DISCID=f30e2911
DTITLE=Various Artist - Pista Sertaneja Remixes 3
DYEAR=2012
DGENRE=Dance
TTITLE0=Various Artist - Pista Sertaneja Remixes 3
TTITLE1=01.  Jorge and Mateus –  A Hora É Agora     04:38
TTITLE2=02.  João Lucas and Marcelo –  Eu Quero Tchu Eu Quero Tcha     0
TTITLE2=4:19
TTITLE3=03.  Luan Santana –  Incondicional     03:40
TTITLE4=04.  Gusttavo Lima –  Gatinha Assanhada     04:04
TTITLE5=05.  Munhoz and Mariano –  Camaro Amarelo     03:34
TTITLE6=06.  Thaeme and Thiago –  Tcha Tcha Tcha     02:58
TTITLE7=07.  João Neto and Frederico –  Lê Lê Lê     03:52
TTITLE8=08.  Cristiano Araujo –  Me Apego     04:11
TTITLE9=09.  Fernando and Sorocaba –  Everest     04:19
TTITLE10=10.  Michel Teló –  Humilde Residência     02:47
TTITLE11=11.  Guilherme and Santiago –  Bolo Doido     02:49
TTITLE12=12.  Israel Novaes –  Vem Ni Mim Dodge Ram     03:15
TTITLE13=13.  Zé Ricardo and Thiago –  Sinal Disfarçado     03:09
TTITLE14=14.  George Henrique and Rodrigo –  Tá Bagunçado     02:58
TTITLE15=15.  Bruninho and Davi –  Vamo Mexê     02:35
TTITLE16=16.  Gabriel Valim –  Festa Open Bar     03:11
EXTD=
EXTT0=
EXTT1=
EXTT2=
EXTT3=
EXTT4=
EXTT5=
EXTT6=
EXTT7=
EXTT8=
EXTT9=
EXTT10=
EXTT11=
EXTT12=
EXTT13=
EXTT14=
EXTT15=
EXTT16=
PLAYORDER=
